# Blender v2.73 (sub 0) OBJ File: ''
# www.blender.org
o cube_tex.001
v -1.000000 -1.000000 -1.000000
v -1.000000 1.000000 -1.000000
v 1.000000 1.000000 -1.000000
v 1.000000 -1.000000 -1.000000
v -1.000000 -1.000000 1.000000
v 1.000000 1.000000 1.000000
v 1.000000 -1.000000 1.000000
v -1.000000 1.000000 1.000000
vt 0.000000 0.000000
vt 0.000000 1.000000
vt 1.000000 1.000000
vt 1.000000 0.000000
vn 0.000000 0.000000 -1.000000
vn -1.000000 0.000000 0.000000
vn 0.000000 -1.000000 -0.000000
vn 0.000000 1.000000 0.000000
vn 1.000000 0.000000 0.000000
s off
f 1/1/1 2/2/1 3/3/1
f 4/4/1 1/1/1 3/3/1
f 5/4/1 6/2/1 7/1/1
f 5/4/1 8/3/1 6/2/1
f 3/2/2 4/1/2 6/3/2
f 6/3/2 4/1/2 7/4/2
f 2/1/3 3/4/3 8/2/3
f 8/2/3 3/4/3 6/3/3
f 1/2/3 4/3/3 5/1/3
f 4/3/4 5/1/4 7/4/4
f 1/4/5 2/3/5 8/2/5
f 1/4/5 8/2/5 5/1/5
